<?xml version='1.0' encoding='utf-8'?>
<svg xmlns="http://www.w3.org/2000/svg" viewBox="0 0 58.282 58.282">
 <g fill="#7f7f00">
  <path class="fil1" d="m29.141 0h4.31e-4v0.00679c8.05 1.2e-4 15.335 3.26 20.604 8.5296 5.2693 5.2693 8.5291 12.554 8.5293 20.604h0.00679v0.001348h-0.00679c-1.18e-4 8.05-3.26 15.335-8.5296 20.604-5.2694 5.2693-12.554 8.5291-20.604 8.5293v0.00679h-0.001362v-0.00679c-8.05-1.18e-4 -15.335-3.26-20.604-8.5296-5.2693-5.2694-8.5291-12.554-8.5293-20.604h-0.00678v-0.00135h0.00678c1.3e-4 -8.05 3.26-15.335 8.5296-20.604 5.2693-5.2693 12.554-8.5291 20.604-8.5293v-0.00679h9.29e-4zm4e-4 3.4758v0.00679h-0.00136v-0.00679c-7.0792 1.8e-4 -13.494 2.8753-18.141 7.5226-4.6477 4.6476-7.5229 11.063-7.5229 18.142h0.00679v0.00136h-0.00679c1.9e-4 7.0792 2.8753 13.494 7.5226 18.141 4.6476 4.6477 11.063 7.5229 18.142 7.5229v-0.006779h0.001362v0.006779c7.0792-1.79e-4 13.494-2.8753 18.141-7.5226 4.6477-4.6476 7.5229-11.063 7.5229-18.142h-0.00679v-0.00135h0.00679c-1.87e-4 -7.0792-2.8753-13.494-7.5226-18.141-4.6476-4.6477-11.063-7.5229-18.142-7.5229z"/>
  <text transform="matrix(1 0 0 1.0266 0 -1.2891)" x="28.015999" y="39.58976" font-family="Arial" font-size="35" font-weight="bold" stroke-width="0" text-anchor="middle">@</text>
 </g>
</svg>